<mxfile host="app.diagrams.net" modified="2021-12-17T19:18:20.614Z" agent="5.0 (Windows NT 10.0; Win64; x64) AppleWebKit/537.36 (KHTML, like Gecko) Chrome/96.0.4664.110 Safari/537.36" etag="0j9ZFywqnuBBnEcE0Nj-" version="16.0.0" type="github">
  <diagram id="C2KxfXUZpz2wyf2tlHLv" name="Page-1">
    <mxGraphModel dx="1422" dy="715" grid="1" gridSize="10" guides="1" tooltips="1" connect="1" arrows="1" fold="1" page="1" pageScale="1" pageWidth="850" pageHeight="1100" math="0" shadow="0">
      <root>
        <mxCell id="0" />
        <mxCell id="1" parent="0" />
        <mxCell id="jKoXbE3lq7HFxPkfwrZm-1" value="APP" style="whiteSpace=wrap;html=1;aspect=fixed;" parent="1" vertex="1">
          <mxGeometry x="370" y="150" width="80" height="80" as="geometry" />
        </mxCell>
        <mxCell id="jKoXbE3lq7HFxPkfwrZm-3" value="EVENT&lt;br&gt;CHANNEL" style="rounded=1;whiteSpace=wrap;html=1;" parent="1" vertex="1">
          <mxGeometry x="350" y="450" width="120" height="60" as="geometry" />
        </mxCell>
        <mxCell id="jKoXbE3lq7HFxPkfwrZm-11" value="" style="endArrow=classic;html=1;rounded=0;exitX=0.092;exitY=1;exitDx=0;exitDy=0;exitPerimeter=0;" parent="1" source="jKoXbE3lq7HFxPkfwrZm-3" edge="1">
          <mxGeometry width="50" height="50" relative="1" as="geometry">
            <mxPoint x="370" y="660" as="sourcePoint" />
            <mxPoint x="160" y="598" as="targetPoint" />
          </mxGeometry>
        </mxCell>
        <mxCell id="jKoXbE3lq7HFxPkfwrZm-12" value="" style="endArrow=classic;html=1;rounded=0;exitX=0.5;exitY=1;exitDx=0;exitDy=0;entryX=0.5;entryY=0;entryDx=0;entryDy=0;" parent="1" source="jKoXbE3lq7HFxPkfwrZm-3" edge="1">
          <mxGeometry width="50" height="50" relative="1" as="geometry">
            <mxPoint x="370" y="660" as="sourcePoint" />
            <mxPoint x="410" y="600" as="targetPoint" />
          </mxGeometry>
        </mxCell>
        <mxCell id="jKoXbE3lq7HFxPkfwrZm-13" value="" style="endArrow=classic;html=1;rounded=0;entryX=0.5;entryY=0;entryDx=0;entryDy=0;exitX=0.917;exitY=1;exitDx=0;exitDy=0;exitPerimeter=0;" parent="1" source="jKoXbE3lq7HFxPkfwrZm-3" edge="1">
          <mxGeometry width="50" height="50" relative="1" as="geometry">
            <mxPoint x="460" y="530" as="sourcePoint" />
            <mxPoint x="659.9999999999995" y="600" as="targetPoint" />
          </mxGeometry>
        </mxCell>
        <mxCell id="jKoXbE3lq7HFxPkfwrZm-20" value="API GATEAWAY" style="ellipse;whiteSpace=wrap;html=1;fillColor=#e1d5e7;strokeColor=#9673a6;" parent="1" vertex="1">
          <mxGeometry x="345" y="300" width="130" height="100" as="geometry" />
        </mxCell>
        <mxCell id="jKoXbE3lq7HFxPkfwrZm-21" value="" style="endArrow=classic;html=1;rounded=0;exitX=0.5;exitY=1;exitDx=0;exitDy=0;entryX=0.5;entryY=0;entryDx=0;entryDy=0;" parent="1" source="jKoXbE3lq7HFxPkfwrZm-1" target="jKoXbE3lq7HFxPkfwrZm-20" edge="1">
          <mxGeometry width="50" height="50" relative="1" as="geometry">
            <mxPoint x="370" y="400" as="sourcePoint" />
            <mxPoint x="420" y="350" as="targetPoint" />
          </mxGeometry>
        </mxCell>
        <mxCell id="jKoXbE3lq7HFxPkfwrZm-22" value="" style="endArrow=classic;html=1;rounded=0;exitX=0.5;exitY=1;exitDx=0;exitDy=0;entryX=0.5;entryY=0;entryDx=0;entryDy=0;" parent="1" source="jKoXbE3lq7HFxPkfwrZm-20" target="jKoXbE3lq7HFxPkfwrZm-3" edge="1">
          <mxGeometry width="50" height="50" relative="1" as="geometry">
            <mxPoint x="370" y="400" as="sourcePoint" />
            <mxPoint x="420" y="350" as="targetPoint" />
          </mxGeometry>
        </mxCell>
        <mxCell id="jKoXbE3lq7HFxPkfwrZm-72" value="&lt;h1&gt;Microservice saga choreography pattern&lt;/h1&gt;&lt;p&gt;Nodejs&amp;nbsp;architecture app for data with one way to be stored in DB without response.&lt;/p&gt;" style="text;html=1;strokeColor=none;fillColor=none;spacing=5;spacingTop=-20;whiteSpace=wrap;overflow=hidden;rounded=0;" parent="1" vertex="1">
          <mxGeometry x="175" y="40" width="490" height="120" as="geometry" />
        </mxCell>
        <mxCell id="jKoXbE3lq7HFxPkfwrZm-92" value="" style="edgeStyle=orthogonalEdgeStyle;rounded=0;orthogonalLoop=1;jettySize=auto;html=1;" parent="1" source="jKoXbE3lq7HFxPkfwrZm-74" target="jKoXbE3lq7HFxPkfwrZm-89" edge="1">
          <mxGeometry relative="1" as="geometry" />
        </mxCell>
        <mxCell id="jKoXbE3lq7HFxPkfwrZm-74" value="SERVICE 1" style="ellipse;whiteSpace=wrap;html=1;aspect=fixed;fillColor=#ffe6cc;strokeColor=#d79b00;" parent="1" vertex="1">
          <mxGeometry x="90" y="600" width="130" height="130" as="geometry" />
        </mxCell>
        <mxCell id="jKoXbE3lq7HFxPkfwrZm-93" value="" style="edgeStyle=orthogonalEdgeStyle;rounded=0;orthogonalLoop=1;jettySize=auto;html=1;" parent="1" source="jKoXbE3lq7HFxPkfwrZm-81" target="jKoXbE3lq7HFxPkfwrZm-91" edge="1">
          <mxGeometry relative="1" as="geometry" />
        </mxCell>
        <mxCell id="jKoXbE3lq7HFxPkfwrZm-81" value="&lt;span&gt;SERVICE 2&lt;/span&gt;" style="ellipse;whiteSpace=wrap;html=1;aspect=fixed;fillColor=#ffe6cc;strokeColor=#d79b00;" parent="1" vertex="1">
          <mxGeometry x="345" y="600" width="130" height="130" as="geometry" />
        </mxCell>
        <mxCell id="jKoXbE3lq7HFxPkfwrZm-94" value="" style="edgeStyle=orthogonalEdgeStyle;rounded=0;orthogonalLoop=1;jettySize=auto;html=1;" parent="1" source="jKoXbE3lq7HFxPkfwrZm-82" target="jKoXbE3lq7HFxPkfwrZm-90" edge="1">
          <mxGeometry relative="1" as="geometry" />
        </mxCell>
        <mxCell id="jKoXbE3lq7HFxPkfwrZm-82" value="&lt;span&gt;SERVICE 3&lt;/span&gt;" style="ellipse;whiteSpace=wrap;html=1;aspect=fixed;fillColor=#ffe6cc;strokeColor=#d79b00;" parent="1" vertex="1">
          <mxGeometry x="600" y="600" width="130" height="130" as="geometry" />
        </mxCell>
        <mxCell id="jKoXbE3lq7HFxPkfwrZm-105" style="edgeStyle=orthogonalEdgeStyle;rounded=0;orthogonalLoop=1;jettySize=auto;html=1;" parent="1" source="jKoXbE3lq7HFxPkfwrZm-84" target="jKoXbE3lq7HFxPkfwrZm-95" edge="1">
          <mxGeometry relative="1" as="geometry" />
        </mxCell>
        <mxCell id="jKoXbE3lq7HFxPkfwrZm-106" style="edgeStyle=orthogonalEdgeStyle;rounded=0;orthogonalLoop=1;jettySize=auto;html=1;entryX=0.5;entryY=1;entryDx=0;entryDy=0;entryPerimeter=0;" parent="1" source="jKoXbE3lq7HFxPkfwrZm-84" target="jKoXbE3lq7HFxPkfwrZm-89" edge="1">
          <mxGeometry relative="1" as="geometry" />
        </mxCell>
        <mxCell id="jKoXbE3lq7HFxPkfwrZm-107" style="edgeStyle=orthogonalEdgeStyle;rounded=0;orthogonalLoop=1;jettySize=auto;html=1;entryX=0.5;entryY=1;entryDx=0;entryDy=0;entryPerimeter=0;" parent="1" source="jKoXbE3lq7HFxPkfwrZm-84" target="jKoXbE3lq7HFxPkfwrZm-91" edge="1">
          <mxGeometry relative="1" as="geometry" />
        </mxCell>
        <mxCell id="jKoXbE3lq7HFxPkfwrZm-108" style="edgeStyle=orthogonalEdgeStyle;rounded=0;orthogonalLoop=1;jettySize=auto;html=1;entryX=0.5;entryY=1;entryDx=0;entryDy=0;entryPerimeter=0;" parent="1" source="jKoXbE3lq7HFxPkfwrZm-84" target="jKoXbE3lq7HFxPkfwrZm-90" edge="1">
          <mxGeometry relative="1" as="geometry" />
        </mxCell>
        <mxCell id="jKoXbE3lq7HFxPkfwrZm-84" value="REST&lt;br&gt;API" style="whiteSpace=wrap;html=1;aspect=fixed;fillColor=#F8CECC;" parent="1" vertex="1">
          <mxGeometry x="390" y="870" width="40" height="40" as="geometry" />
        </mxCell>
        <mxCell id="jKoXbE3lq7HFxPkfwrZm-89" value="DB" style="shape=cylinder3;whiteSpace=wrap;html=1;boundedLbl=1;backgroundOutline=1;size=15;" parent="1" vertex="1">
          <mxGeometry x="125" y="750" width="60" height="80" as="geometry" />
        </mxCell>
        <mxCell id="jKoXbE3lq7HFxPkfwrZm-90" value="DB" style="shape=cylinder3;whiteSpace=wrap;html=1;boundedLbl=1;backgroundOutline=1;size=15;" parent="1" vertex="1">
          <mxGeometry x="635" y="750" width="60" height="80" as="geometry" />
        </mxCell>
        <mxCell id="jKoXbE3lq7HFxPkfwrZm-91" value="DB" style="shape=cylinder3;whiteSpace=wrap;html=1;boundedLbl=1;backgroundOutline=1;size=15;" parent="1" vertex="1">
          <mxGeometry x="380" y="750" width="60" height="80" as="geometry" />
        </mxCell>
        <mxCell id="jKoXbE3lq7HFxPkfwrZm-104" value="" style="edgeStyle=orthogonalEdgeStyle;rounded=0;orthogonalLoop=1;jettySize=auto;html=1;" parent="1" source="jKoXbE3lq7HFxPkfwrZm-95" target="jKoXbE3lq7HFxPkfwrZm-84" edge="1">
          <mxGeometry relative="1" as="geometry" />
        </mxCell>
        <mxCell id="jKoXbE3lq7HFxPkfwrZm-95" value="WEB APP" style="rounded=0;whiteSpace=wrap;html=1;" parent="1" vertex="1">
          <mxGeometry x="350" y="960" width="120" height="60" as="geometry" />
        </mxCell>
      </root>
    </mxGraphModel>
  </diagram>
</mxfile>
